<?xml version="1.0" encoding="UTF-8" ?>
<!DOCTYPE svg PUBLIC "-//W3C//DTD SVG 1.1//EN" "http://www.w3.org/Graphics/SVG/1.1/DTD/svg11.dtd">
<svg width="241pt" height="238pt" viewBox="0 0 241 238" version="1.1" xmlns="http://www.w3.org/2000/svg">
<g id="#f5f7fbff">
<path fill="#f5f7fb" opacity="1.00" d=" M 156.43 76.04 C 168.82 81.48 181.17 87.03 193.56 92.47 C 195.54 93.41 198.25 94.30 198.25 96.97 C 197.76 98.52 196.84 100.32 194.99 100.47 C 192.77 100.14 190.77 99.05 188.73 98.19 C 177.00 93.03 165.25 87.92 153.52 82.78 C 154.48 80.53 155.45 78.28 156.43 76.04 Z" />
<path fill="#f5f7fb" opacity="1.00" d=" M 43.75 94.87 C 56.58 88.76 69.48 82.80 82.36 76.79 C 83.39 79.02 84.42 81.25 85.45 83.49 C 72.99 89.39 60.46 95.16 48.00 101.05 C 46.15 101.91 43.44 103.12 42.09 100.85 C 40.33 98.85 41.20 95.65 43.75 94.87 Z" />
</g>
<g id="#2e6a47ff">
<path fill="#2e6a47" opacity="1.00" d=" M 155.72 0.84 C 162.79 10.12 168.63 21.10 168.80 33.02 C 169.15 42.89 164.31 52.62 156.59 58.67 C 152.58 61.92 148.00 64.34 143.35 66.53 C 141.80 55.08 148.09 44.81 153.07 35.04 C 155.84 29.69 158.01 23.90 157.82 17.78 C 154.93 29.09 147.24 38.30 143.14 49.13 C 140.87 54.54 139.47 60.33 139.50 66.22 C 135.50 57.80 131.89 48.33 133.95 38.90 C 135.57 31.29 141.47 25.83 146.15 20.00 C 150.89 14.55 154.17 7.89 155.72 0.84 Z" />
<path fill="#2e6a47" opacity="1.00" d=" M 126.40 18.35 C 130.00 16.45 135.02 19.93 134.12 24.02 C 133.70 27.95 128.46 30.23 125.40 27.67 C 122.07 25.51 122.79 19.84 126.40 18.35 Z" />
<path fill="#2e6a47" opacity="1.00" d=" M 66.79 21.47 C 78.31 23.06 90.58 27.76 96.88 38.14 C 102.02 46.76 100.42 57.43 96.81 66.31 C 88.96 60.26 86.94 50.02 84.03 41.12 C 82.77 36.90 80.59 32.99 77.39 29.93 C 82.53 38.45 83.05 48.76 87.31 57.67 C 89.01 61.60 91.45 65.16 94.37 68.28 C 85.84 65.02 76.03 60.31 73.65 50.61 C 71.66 40.84 72.90 30.04 66.79 21.47 Z" />
<path fill="#2e6a47" opacity="1.00" d=" M 109.49 31.68 C 111.83 30.45 115.53 32.00 114.98 35.00 C 115.31 38.32 110.64 39.64 108.63 37.44 C 107.35 35.71 107.34 32.74 109.49 31.68 Z" />
<path fill="#2e6a47" opacity="1.00" d=" M 109.72 43.77 C 118.96 49.85 127.52 57.67 132.13 67.93 C 135.63 75.64 136.01 84.78 132.81 92.66 C 130.14 99.54 125.20 105.21 120.00 110.30 C 114.72 100.32 116.99 88.68 118.46 78.05 C 119.47 71.80 119.70 65.27 117.38 59.27 C 118.31 70.33 114.48 81.00 113.94 91.98 C 113.43 98.44 113.90 105.05 116.15 111.18 C 109.14 104.46 102.42 96.04 101.66 85.99 C 101.12 76.37 106.93 68.10 108.94 58.98 C 110.22 54.02 110.29 48.84 109.72 43.77 Z" />
<path fill="#2e6a47" opacity="1.00" d=" M 142.40 71.44 C 146.24 70.07 149.94 75.28 147.36 78.43 C 145.54 81.20 140.72 80.71 139.57 77.59 C 138.48 75.20 140.08 72.30 142.40 71.44 Z" />
<path fill="#2e6a47" opacity="1.00" d=" M 94.49 74.41 C 98.30 72.85 99.88 79.85 95.97 80.05 C 92.29 81.40 91.02 75.08 94.49 74.41 Z" />
<path fill="#2e6a47" opacity="1.00" d=" M 118.32 116.32 C 120.01 115.80 122.71 115.91 123.10 118.08 C 123.98 120.17 122.62 123.32 120.03 122.80 C 116.31 123.68 115.26 117.49 118.32 116.32 Z" />
</g>
<g id="#a6d71cff">
<path fill="#a6d71c" opacity="1.00" d=" M 123.44 141.02 C 133.93 117.09 144.46 93.18 154.98 69.27 C 169.75 75.77 184.56 82.19 199.31 88.72 C 211.51 93.98 220.73 105.70 222.86 118.82 C 224.14 126.25 222.88 133.94 220.00 140.86 C 215.30 151.26 205.96 159.51 194.93 162.58 C 185.54 165.85 175.21 163.51 166.30 159.82 C 152.02 153.53 137.72 147.30 123.44 141.02 M 156.43 76.04 C 155.45 78.28 154.48 80.53 153.52 82.78 C 165.25 87.92 177.00 93.03 188.73 98.19 C 190.77 99.05 192.77 100.14 194.99 100.47 C 196.84 100.32 197.76 98.52 198.25 96.97 C 198.25 94.30 195.54 93.41 193.56 92.47 C 181.17 87.03 168.82 81.48 156.43 76.04 Z" />
<path fill="#a6d71c" opacity="1.00" d=" M 39.09 91.05 C 53.85 83.97 68.77 77.24 83.55 70.20 C 94.69 93.84 105.75 117.52 116.85 141.18 C 103.77 147.28 90.70 153.40 77.64 159.52 C 70.85 162.72 63.69 165.97 56.00 165.41 C 35.92 166.64 17.25 148.95 16.76 128.95 C 15.45 113.31 25.04 97.74 39.09 91.05 M 43.75 94.87 C 41.20 95.65 40.33 98.85 42.09 100.85 C 43.44 103.12 46.15 101.91 48.00 101.05 C 60.46 95.16 72.99 89.39 85.45 83.49 C 84.42 81.25 83.39 79.02 82.36 76.79 C 69.48 82.80 56.58 88.76 43.75 94.87 Z" />
</g>
<g id="#000000ff">
<path fill="#000000" opacity="1.00" d=" M 110.35 191.04 C 110.73 184.88 112.36 178.90 113.59 172.88 C 116.68 172.88 119.77 172.88 122.87 172.88 C 119.52 188.94 116.08 204.98 112.67 221.03 C 110.31 221.03 107.94 221.02 105.57 221.02 C 105.77 219.48 105.98 217.93 106.20 216.39 C 103.39 219.56 99.44 222.18 95.01 221.57 C 90.45 221.32 87.10 217.16 86.56 212.83 C 85.63 205.74 87.22 198.22 91.27 192.28 C 94.04 188.20 98.92 184.94 104.04 185.96 C 106.94 186.36 108.82 188.78 110.35 191.04 M 101.34 194.20 C 96.66 198.21 95.21 205.14 95.97 211.03 C 96.57 214.59 101.45 214.99 103.56 212.53 C 107.05 208.62 108.14 203.03 108.16 197.92 C 108.29 194.50 104.17 191.87 101.34 194.20 Z" />
<path fill="#000000" opacity="1.00" d=" M 130.22 177.16 C 136.72 173.76 144.69 175.01 151.05 178.14 C 149.96 180.56 148.84 182.97 147.71 185.37 C 144.00 183.92 139.73 182.20 135.77 183.76 C 132.66 185.03 132.07 189.41 134.20 191.81 C 136.66 194.40 140.08 195.85 142.47 198.53 C 147.36 203.69 147.23 213.06 141.62 217.66 C 134.98 222.79 125.19 222.77 117.94 218.91 C 117.97 216.08 117.97 213.25 117.96 210.42 C 122.72 212.91 128.56 215.00 133.81 212.77 C 137.18 211.41 137.09 206.58 134.59 204.42 C 130.81 200.90 125.70 198.30 123.91 193.12 C 121.87 187.17 124.54 180.00 130.22 177.16 Z" />
<path fill="#000000" opacity="1.00" d=" M 12.46 175.78 C 16.60 175.78 20.74 175.78 24.88 175.78 C 25.66 187.17 26.21 198.58 26.99 209.97 C 32.81 198.61 38.45 187.17 44.21 175.79 C 48.56 175.78 52.92 175.78 57.28 175.79 C 54.09 190.87 50.91 205.95 47.71 221.03 C 44.83 221.03 41.95 221.03 39.07 221.02 C 41.53 209.18 43.88 197.30 46.93 185.59 C 40.83 197.31 35.02 209.18 29.08 220.98 C 26.17 221.03 23.26 221.03 20.35 221.03 C 19.62 209.20 19.22 197.36 18.33 185.55 C 16.57 197.49 13.81 209.25 11.33 221.06 C 8.51 221.02 5.69 221.02 2.87 221.03 C 6.08 205.95 9.21 190.85 12.46 175.78 Z" />
<path fill="#000000" opacity="1.00" d=" M 61.85 190.85 C 66.85 185.75 75.20 184.30 81.63 187.31 C 87.33 190.22 87.60 198.94 82.81 202.82 C 77.76 207.04 70.79 207.23 64.53 207.34 C 64.58 209.97 65.17 213.18 68.03 214.15 C 72.42 215.44 76.95 213.75 80.96 212.01 C 80.96 214.35 80.96 216.69 80.97 219.03 C 75.48 221.46 69.13 222.54 63.29 220.77 C 59.02 219.47 55.90 215.45 55.46 211.04 C 54.66 203.86 56.66 196.06 61.85 190.85 M 65.60 201.08 C 69.23 200.87 73.54 201.09 76.22 198.18 C 77.83 196.58 77.65 192.97 75.02 192.63 C 70.04 191.87 66.78 196.90 65.60 201.08 Z" />
<path fill="#000000" opacity="1.00" d=" M 148.84 186.48 C 151.90 186.42 154.96 186.42 158.03 186.45 C 158.85 194.93 160.11 203.38 160.24 211.92 C 163.23 203.06 167.85 194.90 171.77 186.44 C 175.15 186.43 178.52 186.43 181.90 186.45 C 175.56 198.30 169.26 210.17 162.96 222.03 C 160.58 226.62 158.09 231.58 153.44 234.26 C 149.84 236.46 145.42 236.54 141.39 235.76 C 141.38 233.29 141.38 230.82 141.36 228.35 C 144.00 228.52 147.01 229.09 149.28 227.30 C 151.28 225.62 152.94 223.41 153.85 220.95 C 152.39 209.44 150.55 197.96 148.84 186.48 Z" />
<path fill="#000000" opacity="1.00" d=" M 196.36 186.56 C 199.97 185.13 204.75 185.56 207.27 188.80 C 209.61 192.06 209.54 196.40 208.77 200.18 C 207.39 207.14 205.87 214.07 204.44 221.03 C 201.34 221.03 198.24 221.03 195.14 221.02 C 196.60 213.71 198.30 206.44 199.66 199.11 C 200.05 197.10 200.11 193.98 197.54 193.48 C 193.92 192.63 191.46 196.25 190.18 199.10 C 187.21 206.07 186.47 213.72 184.67 221.03 C 181.57 221.03 178.47 221.03 175.37 221.02 C 177.82 209.50 180.25 197.96 182.70 186.44 C 185.07 186.44 187.43 186.43 189.80 186.43 C 189.59 188.67 189.39 190.90 189.15 193.13 C 191.11 190.54 193.22 187.77 196.36 186.56 Z" />
<path fill="#000000" opacity="1.00" d=" M 219.69 188.67 C 225.38 184.57 233.07 185.31 239.22 187.94 C 238.29 190.31 237.34 192.67 236.40 195.04 C 233.21 193.93 229.54 192.37 226.29 194.12 C 222.05 196.83 220.53 202.18 220.26 206.94 C 220.04 209.39 220.48 212.52 223.03 213.61 C 226.77 215.04 230.64 213.12 234.05 211.64 C 234.04 214.17 234.04 216.70 234.06 219.23 C 228.71 221.72 222.22 222.69 216.70 220.16 C 212.89 218.34 210.82 214.11 210.80 210.01 C 210.55 202.16 212.96 193.39 219.69 188.67 Z" />
</g>
</svg>
